<?xml version="1.0" encoding="UTF-8" standalone="no"?>
<svg xmlns="http://www.w3.org/2000/svg" version="1.0" width="415.41986" height="282.38748" id="svg4673">
  <defs id="defs4675" />
  <g transform="translate(157.70173,-68.311287)" id="layer1">
    <path d="M -157.70173,68.311287 L 257.71813,68.311287 L 257.71813,350.69878 L -157.70173,350.69878 L -157.70173,68.311287 z" id="path1135" style="fill:#ffd400;fill-opacity:1;fill-rule:nonzero;stroke:none" />
    <path d="M 226.69269,87.111677 C 215.94021,87.111677 207.17167,95.886338 207.17167,106.63882 C 207.17167,117.3913 215.94021,126.15983 226.69269,126.15983 C 237.45742,126.15983 246.21983,117.3913 246.21983,106.63882 C 246.21983,95.886338 237.45742,87.111677 226.69269,87.111677 z M 226.69269,91.942945 C 234.7693,91.942945 241.44367,98.519348 241.44367,106.63882 C 241.44367,114.75829 234.7693,121.33469 226.69269,121.33469 C 218.62833,121.33469 211.99682,114.75829 211.99682,106.63882 C 211.99682,98.519348 218.62833,91.942945 226.69269,91.942945 z M 219.78563,116.234 L 223.6433,116.234 L 223.6433,109.00853 L 227.6173,109.00853 C 230.48912,109.00853 230.63608,109.93314 230.63608,112.48655 C 230.63608,114.43375 230.81978,115.35837 231.10145,116.234 L 235.36325,116.234 L 235.36325,115.76251 C 234.57947,115.44409 234.57947,114.75829 234.57947,112.06404 C 234.57947,108.5799 233.69772,108.0288 232.17302,107.33075 C 234.0345,106.73067 235.09383,104.9243 235.09383,102.88525 C 235.09383,101.30544 234.16921,97.643719 229.19711,97.643719 L 219.78563,97.643719 L 219.78563,116.234 z M 223.6433,105.84891 L 223.6433,100.84007 L 228.46232,100.84007 C 230.73405,100.84007 231.19942,102.27904 231.19942,103.29551 C 231.19942,105.10187 230.17071,105.84891 228.18065,105.84891 L 223.6433,105.84891 z M 52.277178,90.791769 C 121.1947,90.791769 181.76006,114.77666 215.13806,150.51824 L 193.23509,151.9021 C 161.64508,124.95355 110.20341,107.36749 52.277178,107.36749 C -43.392951,107.36749 -121.43416,155.38013 -121.43416,214.24322 C -121.43416,273.10631 -43.392951,321.12507 52.277178,321.12507 C 112.61598,321.12507 165.91913,302.02656 197.07438,273.16754 L 218.31604,274.38608 C 185.67896,312.09324 123.43582,337.66405 52.277178,337.66405 C -52.510515,337.66405 -137.99151,282.21775 -137.99151,214.23097 C -137.99151,146.23807 -52.510515,90.791769 52.277178,90.791769 z M 52.277178,121.84905 C 99.769339,121.84905 142.51596,134.016 171.724,153.24923 L -86.911102,169.45143 C -59.668629,141.10676 -7.443173,121.84905 52.277178,121.84905 z M 176.45118,271.96738 C 147.22476,293.08045 102.40235,306.63127 52.277178,306.63127 C -9.1331983,306.63127 -62.613927,286.27136 -89.16447,256.60407 L 176.45118,271.96738 z" id="path1137" style="fill:#005aaa;fill-opacity:1;fill-rule:evenodd;stroke:none" />
  </g>
</svg>
